<svg width="32" height="32" viewBox="0 0 32 32" fill="none" xmlns="http://www.w3.org/2000/svg">
  <path
    d="M24.5257 11.3855L13.6103 0.470959C13.3186 0.180048 12.9159 0 12.4708 0C12.0257 0 11.6231 0.180048 11.3314 0.470959L9.06992 2.73656L11.9449 5.6115C12.1282 5.54731 12.3391 5.51064 12.5592 5.51064C13.617 5.51064 14.4739 6.36753 14.4739 7.42531C14.4739 7.64954 14.4355 7.86376 14.3647 8.06382L14.3688 8.05048L17.1379 10.8212C17.323 10.7554 17.5372 10.717 17.7597 10.717C18.8167 10.717 19.6736 11.5739 19.6736 12.6309C19.6736 13.6878 18.8167 14.5447 17.7597 14.5447C16.7028 14.5447 15.8459 13.6878 15.8459 12.6309C15.8459 12.37 15.8984 12.1216 15.9926 11.8948L15.9876 11.9073L13.3952 9.32832V16.1251C14.0321 16.4461 14.4614 17.0946 14.4614 17.8431C14.4614 18.9017 13.6028 19.7603 12.5442 19.7603C11.4856 19.7603 10.627 18.9017 10.627 17.8431C10.627 17.3146 10.8404 16.837 11.1863 16.4902C11.3622 16.3144 11.5714 16.1718 11.804 16.0718L11.8165 16.0668V9.20329C11.1146 8.90821 10.6312 8.22553 10.6312 7.43115C10.6312 7.16441 10.6854 6.91101 10.7837 6.68011L10.7787 6.69262L7.95379 3.85436L0.468458 11.3347C0.178381 11.6273 0 12.0299 0 12.475C0 12.9201 0.179214 13.3227 0.469292 13.6153L11.3855 24.5282C11.6764 24.82 12.0791 25 12.5242 25C12.9693 25 13.3711 24.82 13.6628 24.5282L24.5274 13.6636C24.8191 13.3727 25 12.9693 25 12.525C25 12.0807 24.8191 11.6773 24.5274 11.3864L24.5257 11.3855Z"
    fill="white"
  />
</svg>
